<?xml version="1.0" encoding="utf-8"?>
<svg id="Capa_1" enable-background="new 0 0 512 512" height="512" viewBox="0 0 512 512" width="512" xmlns="http://www.w3.org/2000/svg">
  <g style="" transform="matrix(1.437619, 0, 0, 1.431512, -107.457283, -14.936609)">
    <path d="M 297.955 290.181 C 295.001 287.638 290.215 287.638 287.261 290.181 L 262.72 311.326 L 262.72 202.9 C 262.72 199.302 259.335 196.385 255.159 196.385 C 250.983 196.385 247.598 199.302 247.598 202.9 L 247.598 273.261 L 214.446 244.696 C 211.493 242.152 206.707 242.152 203.752 244.696 C 200.799 247.241 200.799 251.365 203.752 253.91 L 247.598 291.69 L 247.598 360.364 C 247.598 363.963 250.983 366.879 255.159 366.879 C 259.335 366.879 262.72 363.962 262.72 360.364 L 262.72 329.755 L 297.955 299.395 C 300.908 296.85 300.908 292.726 297.955 290.181 Z" style="fill: rgb(231, 219, 188);"/>
    <g>
      <path d="m93.882 103.204-8.561-4.509c-5.917-3.116-12.31 3.277-9.194 9.194l4.509 8.561c10.901 20.698 18.177 43.022 22.661 65.981 3.013 15.427 11.492 31.478 24.958 44.944 26.484 26.483 62.973 33.691 85.039 17.935 1.806-1.29 1.56-7.258 3.16-8.857 2.031-2.031 5.766.285 7.298-2.073 14.419-22.189 6.955-57.659-18.944-83.558-13.465-13.465-29.517-21.945-44.944-24.958-22.96-4.483-45.284-11.759-65.982-22.66z" fill="#c8ea73"/>
    </g>
    <g>
      <path d="M 76.127 107.889 L 80.636 116.45 C 86.892 128.329 91.919 140.755 95.944 153.518 C 105.419 156.507 101.611 182.848 137.051 197.536 C 164.666 208.981 198.879 231.786 195.159 252.733 C 204.071 251.151 212.099 247.286 218.409 240.977 C 239.548 219.837 233.459 179.474 204.807 150.822 C 191.342 137.357 175.29 128.877 159.863 125.864 C 136.904 121.38 114.58 114.104 93.882 103.203 L 85.321 98.694 C 79.404 95.579 73.011 101.972 76.127 107.889 Z" fill="#aad880"/>
    </g>
    <g>
      <path d="M 361.976 118.682 C 361.976 174.588 319.262 220.424 264.98 224.746 C 262.207 224.968 258.328 220.477 255.5 220.477 C 252.206 220.477 250.023 224.928 246.805 224.629 C 193.172 219.654 151.173 174.12 151.173 118.682 C 151.173 59.92 198.362 12.283 256.574 12.283 C 314.787 12.283 361.976 59.92 361.976 118.682 Z" style="" fill="#ffe07d"/>
    </g>
    <g/>
    <g>
      <path d="m424.862 164.089 4.509-8.561c3.116-5.917-3.277-12.31-9.194-9.194l-8.561 4.509c-20.698 10.901-43.022 18.177-65.981 22.661-15.427 3.013-31.478 11.492-44.944 24.958-26.219 26.219-33.545 62.245-18.401 84.373 1.405 2.053 7.04.34 8.835 2.135 1.914 1.914-.052 7.251 2.154 8.722 22.161 14.777 57.906 7.381 83.964-18.677 13.465-13.465 21.945-29.517 24.958-44.944 4.484-22.96 11.76-45.284 22.661-65.982z" fill="#c8ea73"/>
    </g>
    <g>
      <path d="M 313.235 28.95 C 323.686 45.468 340.958 59.261 346.132 103.917 C 352.126 155.645 307.166 214.533 244.5 208.415 C 204.877 204.547 184.047 186.428 167.685 175.876 C 186.404 205.463 219.22 225.079 256.574 225.079 C 314.787 225.079 361.978 177.443 361.978 118.681 C 361.976 80.973 342.543 47.846 313.235 28.95 Z" fill="#ffd064" style=""/>
    </g>
    <g>
      <path d="m420.177 146.334-8.561 4.509c-11.879 6.256-24.305 11.283-37.068 15.308-2.989 9.475-5.442 19.13-7.352 28.913-3.013 15.427-11.492 31.478-24.958 44.944-20.101 20.101-45.958 29.078-66.905 25.358 1.582 8.912 5.447 16.94 11.756 23.25 21.14 21.139 61.503 15.05 90.155-13.602 13.465-13.465 21.945-29.517 24.958-44.944 4.484-22.959 11.76-45.283 22.661-65.981l4.509-8.561c3.115-5.917-3.278-12.31-9.195-9.194z" fill="#aad880"/>
    </g>
    <path d="M 295.265 140.105 C 295.265 146.385 294.241 151.751 292.184 156.215 C 290.128 160.675 287.358 164.286 283.869 167.04 C 280.379 169.787 276.357 171.799 271.818 173.067 C 269.333 173.759 266.781 174.259 264.169 174.572 L 261.651 197.315 L 249.54 196.882 L 247.23 174.142 C 243.086 173.486 238.975 172.45 234.892 171.001 C 227.435 168.358 220.742 164.613 214.816 159.764 L 223.561 140.105 C 224.424 141.094 225.976 142.389 228.224 143.983 C 230.465 145.583 233.121 147.183 236.181 148.777 C 239.242 150.376 242.632 151.725 246.365 152.823 C 249.425 153.735 252.553 154.262 255.75 154.416 C 256.443 154.458 257.137 154.475 257.838 154.475 C 268.736 154.475 274.183 150.454 274.183 142.417 C 274.183 139.886 273.564 137.739 272.321 135.977 C 271.078 134.214 269.31 132.671 267.014 131.344 C 264.722 130.023 261.949 128.812 258.698 127.713 C 257.749 127.388 256.766 127.058 255.75 126.719 C 253.292 125.893 250.639 125.014 247.8 124.075 C 242.923 122.536 238.693 120.851 235.107 119.036 C 231.523 117.221 228.53 115.069 226.139 112.588 C 223.753 110.111 221.957 107.249 220.765 104 C 219.569 100.748 218.971 96.868 218.971 92.348 C 218.971 86.404 219.926 81.115 221.839 76.491 C 223.753 71.859 226.408 68.009 229.799 64.925 C 233.193 61.841 237.134 59.498 241.634 57.896 C 243.44 57.254 245.312 56.746 247.23 56.364 L 248.876 35.002 L 262.2 35.102 L 264.169 56.09 C 268.294 56.699 272.205 57.8 275.905 59.388 C 281.932 61.979 287.186 65.035 291.682 68.554 L 282.936 87.062 C 282.263 86.294 281.044 85.248 279.278 83.926 C 277.509 82.598 275.352 81.312 272.822 80.041 C 270.288 78.773 267.537 77.7 264.58 76.816 C 261.678 75.957 258.736 75.515 255.75 75.501 C 255.681 75.495 255.609 75.495 255.539 75.495 C 250.092 75.495 246.026 76.653 243.35 78.968 C 240.675 81.278 239.336 84.531 239.336 88.713 C 239.336 91.141 239.838 93.152 240.845 94.744 C 241.846 96.347 243.305 97.75 245.219 98.958 C 247.128 100.178 249.539 101.276 252.459 102.265 C 253.498 102.616 254.592 102.98 255.75 103.345 C 257.834 104.008 260.102 104.699 262.568 105.407 C 267.537 106.95 272.055 108.601 276.12 110.365 C 280.186 112.128 283.625 114.325 286.448 116.974 C 289.264 119.615 291.444 122.783 292.974 126.471 C 294.498 130.166 295.265 134.707 295.265 140.105 Z M 295.265 140.105" style="stroke: none; fill-rule: nonzero; fill-opacity: 1; fill: rgb(235, 176, 68);"/>
  </g>
</svg>